<svg width="512" height="512" xmlns="http://www.w3.org/2000/svg" version="1.1">
 <!-- Generator: Adobe Illustrator 29.3.1, SVG Export Plug-In . SVG Version: 2.1.0 Build 151)  -->

 <g>
  <title>Layer 1</title>
  <path stroke="#f8a1d3" id="svg_3" stroke-miterlimit="10" fill="none" d="m330.0723,125.79742c2.98172,3.72169 2.83273,25.84915 2.58124,31.35844c-1.36023,29.76379 -14.93073,52.37967 -21.96628,80.59763c-0.7131,7.76324 8.52518,34.14238 12.11743,42.08394c0.69601,1.5361 3.91223,6.45432 3.99527,7.26758c0.35165,3.42618 -4.82065,3.47745 -5.29684,4.2052c-0.24179,0.36874 -0.05136,1.65332 -0.29306,2.38345c-0.92798,2.81323 -2.43967,5.10391 -4.66675,7.0697l0.75461,1.18689c12.57416,-1.83646 25.98343,1.34308 37.10458,7.23578c6.12222,-5.84625 11.69501,-13.77072 13.2872,-22.23978c2.51779,-13.38974 0.33704,-20.41068 -1.27231,-33.13869c-0.56656,-4.48853 -0.45667,-9.41418 -1.09402,-14.04675c-0.98904,-7.18942 -2.96472,-14.36905 -3.78033,-21.61707c-2.15631,-19.18481 3.64111,-39.98378 19.4632,-51.94742c-0.0806,0.85719 -0.24664,3.7388 1.2186,3.41643c8.74503,-9.17236 21.21652,-14.27138 33.77118,-15.56322c7.9855,-0.82054 13.28967,-0.26865 20.81601,2.50311c3.31885,1.22102 11.84406,5.00133 13.57794,7.91223c1.83154,3.07701 -3.07703,1.39688 -2.39319,3.84869c0.2002,0.71797 3.17218,4.5105 3.92194,6.34203c2.72534,6.65947 3.09161,15.60228 -3.26501,20.35698c-11.88306,8.88669 -25.46585,6.20773 -39.03632,9.31644c-2.85474,0.65448 -13.60959,3.79498 -14.37152,6.63995c-0.78143,2.91583 4.0929,0.08548 3.34076,1.86572c-5.5972,7.58749 -10.56189,16.6597 -10.24686,26.37668c0.73996,22.71605 8.09296,44.28185 -6.44711,65.35918c-3.83887,5.56549 -9.45804,12.29819 -15.52652,15.27267c3.60696,7.52396 7.27972,14.87204 7.82434,23.3826c0.67636,10.61078 -0.50793,19.95654 -9.06732,27.1142c-0.99152,0.83032 -2.3371,1.13553 -2.97205,1.67041c-7.67538,6.47873 -15.26526,15.13339 -24.99194,18.22992c-17.87585,5.69489 -55.12946,11.58997 -71.93079,2.36151c-1.67526,-0.92065 -2.38098,-2.42258 -4.03668,-3.13812c-4.78159,3.27966 -9.81467,6.13443 -15.22137,8.24933c-15.19693,5.93903 -51.79843,18.44974 -61.87436,-0.17096c-1.08426,-2.00494 -1.65573,-2.84256 -0.89865,-5.20645c-4.96228,0.68863 -9.43126,3.33829 -14.46431,3.84622c-13.93193,1.39923 -33.38536,-2.37122 -39.18524,-16.8624c-0.96216,-2.40546 -1.3871,-3.2504 -0.71307,-5.944c1.42372,-5.68756 9.31155,-13.49963 14.25429,-16.51071c2.14166,-1.30411 4.21741,-1.72415 6.17595,-3.10391c0.7204,-4.96466 1.00124,-10.99652 2.91338,-15.64618c0.57144,-1.38715 2.23691,-2.07574 1.67526,-3.85602c-8.25418,-1.5116 -16.63776,-2.1759 -24.77956,-4.2785c-15.44356,-3.99033 -32.29619,-13.50452 -45.47354,-22.41559c-1.26253,-0.85474 -4.03915,-3.85852 -5.2675,-4.04651c-3.02325,-0.46155 -0.24908,3.82422 -1.35779,5.29681c-4.31757,-4.0636 -7.70468,-8.03198 -9.7487,-13.69513c-0.73747,-2.04391 -0.29546,-5.49945 -3.19174,-3.8877c0.21002,-2.99634 1.57022,-4.05621 3.62402,-1.43103c2.9402,3.76074 4.32245,8.74744 6.94034,12.70355c3.11848,-0.90598 3.6875,-0.94507 6.65701,0.07571c10.04665,3.45798 20.94308,9.81705 31.00682,13.92462c24.85768,10.14432 50.76544,15.74637 77.29105,19.66586c1.91217,1.78027 -4.80594,0.50061 -5.13321,0.48843c-2.10013,-0.07327 -4.25406,0.14407 -6.33954,-0.00977c-6.00992,-0.44449 -15.28241,-2.54465 -20.9968,-1.45059c-2.88896,0.55432 -3.96103,9.36035 -4.15395,11.96365c-0.73996,10.01483 0.82785,21.38266 7.33351,29.28265c5.00618,6.08075 13.45082,11.24326 21.49496,11.29453c0.72284,-0.56412 1.25519,-5.35294 1.69232,-6.63992c1.47989,-4.3591 9.2847,-14.8746 12.46671,-18.79166c9.90253,-12.19315 24.08356,-19.93695 39.0582,-24.18613c-3.72906,2.93051 -8.05875,5.0795 -11.87567,7.90005c-9.37994,6.93546 -31.24365,28.83578 -35.43915,39.28784c-1.30893,3.25772 -1.76312,4.90363 -0.70331,8.39575c2.67163,8.80847 16.3642,8.72784 23.83691,8.88416c12.72559,0.26874 38.47946,-4.99393 48.11826,-13.91968c2.02209,-1.87305 3.52631,-5.7706 3.84387,-8.49103c-3.94159,-1.96341 -7.42633,-3.10138 -11.90259,-2.98178c-4.97934,0.13193 -12.02225,0.86697 -17.02844,1.52878c-4.05872,0.53482 -7.99533,1.7558 -12.03204,2.36877l10.12476,-4.76447c4.48853,-1.30405 9.00629,-3.36273 13.69751,-3.88528c2.93777,-0.32968 6.13687,0.24176 8.9281,-0.35172c2.58371,-0.54944 5.11859,-3.15262 7.53867,-4.18323l-3.1698,5.12341c1.59955,1.0672 3.077,0.82062 4.84991,1.99762c1.41397,0.94019 2.71555,3.50192 3.45065,3.9024c1.2186,0.66913 2.09045,-0.74969 3.27725,-1.15265c1.0647,-0.36142 4.94757,-1.07208 5.30411,-1.53357c0.95242,-1.23572 -1.08667,-2.36389 -1.72897,-3.21863c-10.86478,-14.47168 -6.08804,-28.21066 5.10876,-40.77747c11.27502,-12.65472 22.75998,-16.05655 39.59061,-16.61575l5.59229,0.98904c-18.43262,1.65085 -36.83838,6.4519 -46.16217,23.92722c-3.39441,6.36404 -6.86215,22.52069 -1.2308,28.11057c5.08929,5.05017 13.31409,6.74738 20.26419,6.59351c1.65082,-0.03659 3.79495,-1.07938 5.53854,-1.34064c4.96475,-0.74237 9.97098,-1.32611 15.00156,-1.12088c0.59344,0.02444 1.81693,-0.3688 1.70218,0.48352c-15.10657,1.65567 -31.85907,3.19907 -46.03036,8.91837c-2.84744,1.14777 -9.32864,3.56784 -8.67416,7.42627c0.41028,1.707 2.80838,2.52017 4.39081,2.96222c15.53149,4.34201 55.70331,-1.9585 71.21274,-7.92929c14.77692,-5.69003 28.67712,-25.10196 29.40237,-40.92404c0.83521,-18.17139 -12.12964,-33.43903 -30.09097,-35.83469c-9.41901,-1.25528 -23.19464,-0.68137 -32.54773,1.03049c-3.0672,0.56171 -7.13324,3.69244 -10.13452,5.00626c-11.62665,5.08432 -26.02255,9.26517 -38.3696,12.4252c-6.6424,1.69965 -13.99292,2.40784 -20.44489,4.46402c-2.63495,0.84006 -4.91586,2.40295 -7.59726,2.89627l3.57764,-2.52014c8.33231,-5.06 17.76349,-6.6156 26.82352,-9.80731c11.91727,-4.20038 23.38272,-9.91962 35.06064,-14.75735c4.97446,-2.0611 13.26523,-4.08554 17.32147,-7.09903c0.58612,-0.43713 4.71317,-4.52023 4.88654,-4.89392c1.01593,-2.16852 -2.18564,-3.0672 -0.61295,-4.27606c1.0574,-0.81317 8.64493,-0.77655 6.97699,-4.48846c-0.63742,-1.41638 -5.61429,-5.17715 -7.01852,-7.17963c-5.36026,-7.65094 -9.75107,-21.75385 -12.05148,-30.9287c-4.10507,-16.35687 -3.39206,-34.69183 -11.69504,-49.84479c-10.83051,-19.76114 -20.8576,-25.90779 -42.26706,-31.97142c-27.43164,-7.76819 -58.82425,-9.29692 -87.17897,-7.07951c-3.20886,0.25154 -6.63019,1.36755 -9.79263,0.60564c-0.48354,0.24176 -0.7473,0.52504 -0.73019,1.11115c0.01465,0.53969 6.54715,6.2541 7.59723,7.55571c2.3273,2.88652 3.54346,6.04164 3.93906,9.74136c0.07326,0.67889 0.68375,1.16487 -0.5226,1.00612c-2.04401,-3.27969 -5.07214,-5.68755 -7.56061,-8.55942c-5.68512,-6.55692 -11.81224,-15.23111 -17.82945,-21.24344c-11.12601,-11.11867 -20.70372,-18.00284 -27.90782,-32.65518c-0.75703,-1.54094 -2.42497,-5.09656 -3.65086,-2.29796c-0.49818,1.13799 -1.48721,4.93295 -1.88039,6.42261c-6.30293,23.8027 -4.92076,51.54691 2.06108,75.04922c1.98541,6.68152 5.53125,12.82324 7.67296,19.42661l-10.48865,-21.00659c-8.44951,-17.8343 -9.32378,-37.47821 -5.98792,-56.76802c0.33212,-1.92189 2.76198,-9.4361 2.61545,-10.39825c-0.05127,-0.33214 -0.91579,-1.19417 -1.03055,-1.19661c-0.71796,-0.01711 -3.45552,6.63994 -3.88774,7.82434c-3.15271,8.65465 -6.78404,19.01627 -9.30424,27.815c-4.43965,15.48753 -2.63252,28.92618 1.07207,44.35995c3.23328,13.48013 10.33235,25.76123 11.87083,39.64923c-0.77902,-0.39319 -1.49699,-1.95123 -1.89014,-2.74243c-1.87062,-3.76077 -3.14784,-8.198 -4.90367,-12.06375l-1.26988,-0.69846c-5.99768,7.41165 -8.84756,16.75494 -13.33849,25.11411c-5.78036,10.75481 -16.11024,22.10301 -17.13104,34.67964c-0.18069,2.23694 1.11604,1.38708 0.89134,2.29065c-0.95726,1.18683 -1.52138,2.88892 -2.28574,4.07581c-0.30771,0.47617 0.05371,0.8718 -1.08917,0.63004c-2.24667,-7.74615 -2.04645,-15.52411 2.04643,-22.61581c8.91595,-15.4534 24.4743,-38.63826 25.29483,-56.75591c0.30771,-6.82306 -3.66309,-11.67542 -5.51418,-17.9198c-4.41034,-14.88431 -2.7131,-23.97852 1.48233,-38.37445c4.1857,-14.35928 9.7365,-33.72479 16.01012,-46.99492c1.62886,-3.4433 5.75836,-10.33234 10.12965,-9.16748c3.67776,0.97926 10.37631,13.79761 12.8623,17.41916c7.18698,10.45937 13.59006,19.14818 22.89673,27.89809c2.01956,1.89746 4.76689,3.26257 5.922,5.80231c6.5105,-0.82054 12.94775,-2.25648 19.49004,-2.88162c19.04314,-1.82176 40.09612,-1.11359 59.02693,1.53362c11.8537,1.65814 24.31802,4.27605 34.82861,10.07835c0.67642,0.05618 4.56421,-2.65453 5.28949,-3.31142c4.38589,-3.96834 8.62048,-9.51913 13.1749,-13.68773c9.4776,-8.67175 21.93695,-16.55469 33.52698,-22.15189c3.32602,-1.60443 6.66678,-3.80472 10.47882,-2.29311c0.41275,0.16362 3.25525,2.33461 3.48239,2.61787l-0.00485,0.00244l0,0.00003l0,0.00002zm-43.26834,55.96947c0.79123,0.2442 1.49207,0.4762 2.14658,1.03055c7.39453,6.28094 16.57913,26.49875 18.1933,36.02029c0.34433,2.02939 -0.74973,7.45807 2.30774,5.98306c1.22592,-4.22229 3.48483,-7.99774 5.01108,-12.08331c6.83292,-18.27634 10.74509,-37.45377 11.37753,-57.00002c0.12213,-3.74367 0.38342,-25.36317 -1.95361,-26.89922c-0.66422,-0.43713 -1.86816,-0.27596 -2.65939,-0.18805c-6.20038,0.68866 -33.37311,22.60367 -39.59552,27.81259c-4.01471,3.36024 -7.74619,7.34325 -11.97583,10.25418c-0.73752,1.04031 4.07089,2.86697 5.03064,3.50436c3.10141,2.06107 4.97205,4.51291 7.42145,7.22359c9.37503,-12.53506 18.37646,-25.58055 30.03235,-36.13266l-19.24579,26.90408c-1.1405,1.85846 -7.14551,12.12971 -6.09052,13.57542l0,-0.00488l0,0zm-138.52077,175.40797c-6.95253,6.47882 -23.13358,19.85876 -10.17116,28.23264c7.67783,4.95981 26.10069,8.2493 35.0484,6.89395c1.41884,-0.2149 3.06967,-1.01352 1.21614,-2.13196c-1.23811,-0.74725 -3.24792,-0.99149 -4.69119,-1.65817c-15.0455,-6.94766 -18.39844,-13.32141 -20.65981,-29.64655c-0.10011,-0.72525 0.01221,-1.21616 -0.74239,-1.68991z" class="st0"/>
  <path id="svg_4" stroke-miterlimit="10" stroke="#000" fill="none" d="m1458.66003,1292.59998c-4.31995,-5.92004 20.27002,-47.97998 24.93994,-55.58997l78.81006,-110.17004c-47.72998,43.20996 -84.58997,96.63 -122.97998,147.95996c-10.02002,-11.09998 -17.68005,-21.13989 -30.39001,-29.57996c-3.93005,-2.60999 -23.62,-10.08997 -20.59998,-14.34998c17.30994,-11.92004 32.59998,-28.22998 49.03992,-41.98999c25.4801,-21.33008 136.75,-111.07007 162.14001,-113.89001c3.23999,-0.35999 8.17004,-1.01001 10.89001,0.77002c9.57007,6.28992 8.5,94.81995 8,110.15002c-2.58997,80.04993 -18.60999,158.57996 -46.58997,233.40991c-6.25,16.7301 -15.5,32.19006 -20.52002,49.4801c-12.53003,6.03992 -8.04004,-16.19006 -9.44995,-24.5c-6.62,-38.99011 -44.2301,-121.78003 -74.5,-147.5c-2.68005,-2.27002 -5.54004,-3.21008 -8.79004,-4.22009l0,0.02002zm-22.19006,-29.78003l4.84998,-2.09998c35.83997,-50.69006 73.85999,-100.21997 119.08008,-142.92004c7.43994,-7.02002 17.6499,-13.85999 25.07996,-20.91992c1.88,-1.79004 13.12,-11.90002 10.92993,-14.05005c-70.59998,41.42004 -135.04993,94.51001 -195.93994,149c12.66003,9 29.64001,16.06995 36,30.98999zm115.93005,184.01001c12.97998,-29.83997 23.71997,-61.04004 32.56995,-92.45996c22.02002,-78.19006 33.09009,-167.29004 25.43005,-248.5c-0.60999,-6.43005 -2.82996,-12.72009 -3.98999,-19.03003c-7.81006,9.29004 -14.20996,19.57996 -22.03003,28.93994c-27.71997,33.22009 -55.01001,66.51001 -79.57996,102.42004c-8.90002,13.02002 -36.90002,54.75 -37.47998,68.5c-0.22009,5.21997 8.77991,8.30005 12.18994,12.05005c33.59998,36.87 58.05005,96.67993 68.95996,145.07996c0.69006,3.07996 -1.38,3.5 3.93005,2.98999l0,0.01001z" class="st0"/>
  <path id="svg_5" stroke-miterlimit="10" stroke="#000" fill="none" d="m891.42999,2010.88c3.08002,1.93994 2.62,3.94995 3.03998,6.92004c9.26001,66.84985 22.98999,92.94995 84.60004,121.3999c5.90997,2.72998 14.14996,3.72998 19.20996,6.79004c7.59003,4.58008 0.83002,7.8501 -4.97998,8.72998c-36.64001,5.55005 -112.07001,-7.90991 -143.52002,-28.22998c-53.08002,-34.29004 13.17999,-89.06995 41.65002,-115.60999zm52,137.96008c10.46997,1.06006 22.34998,-0.77002 33,0c1.15002,-5.8999 -1.90997,-3.15991 -4.41998,-4.48999c-19.48004,-10.38013 -40.19,-20.01001 -54.41003,-37.66992c-18.57996,-23.08008 -22.95001,-54.04004 -30.19,-81.8501c-6.04999,0.14001 -38.53998,40.05005 -42.58997,47.40991c-11.41003,20.72998 -13.19,32.62012 7.72998,47.47998c12.83002,9.11011 74.48004,27.47021 90.87,29.13013l0.01001,-0.01001z" class="st0"/>
  <path id="svg_6" stroke-miterlimit="10" stroke="#000" fill="none" d="m1552.40002,1446.82996c-5.30005,0.51001 -3.22998,0.08997 -3.93005,-2.98999c-10.90991,-48.40002 -35.37,-108.20996 -68.95996,-145.07996c-3.41003,-3.74011 -12.41003,-6.83008 -12.18994,-12.05005c0.57996,-13.75 28.57996,-55.47998 37.47998,-68.5c24.55994,-35.92004 51.84998,-69.19995 79.57996,-102.42004c7.81006,-9.35999 14.21997,-19.6499 22.03003,-28.93994c1.16003,6.30994 3.38,12.59998 3.98999,19.03003c7.66003,81.20996 -3.40002,170.30994 -25.43005,248.5c-8.84998,31.41992 -19.58997,62.60999 -32.56995,92.45996l0,-0.01001z" class="st0"/>
  <path id="svg_7" stroke-miterlimit="10" stroke="#000" fill="none" d="m1436.46997,1262.81995c-6.35999,-14.92004 -23.33997,-21.98999 -36,-30.98999c60.89001,-54.48999 125.33997,-107.57996 195.93994,-149c2.19006,2.15002 -9.03992,12.26001 -10.92993,14.05005c-7.44006,7.05994 -17.64001,13.88989 -25.07996,20.91992c-45.2301,42.70007 -83.23999,92.22998 -119.08008,142.92004l-4.84998,2.09998z" class="st0"/>
  <path id="svg_8" stroke-miterlimit="10" stroke="#000" fill="none" d="m943.42999,2148.84009c-16.40002,-1.65991 -78.03998,-20.01001 -90.87,-29.12988c-20.91998,-14.86011 -19.14001,-26.75 -7.72998,-47.48022c4.04999,-7.35986 36.52997,-47.2699 42.58997,-47.40991c7.23999,27.82007 11.60004,58.78003 30.19,81.8501c14.22003,17.65991 34.92999,27.2998 54.41003,37.66992c2.50995,1.34009 5.57996,-1.3999 4.41998,4.48999c-10.65002,-0.77002 -22.53003,1.06006 -33,0l-0.01001,0.01001z" class="st0"/>
 </g>
</svg>