<?xml version="1.0" encoding="UTF-8"?>
<svg id="Calque_2" xmlns="http://www.w3.org/2000/svg" version="1.1" viewBox="0 0 1527 2160">
  <!-- Generator: Adobe Illustrator 29.3.1, SVG Export Plug-In . SVG Version: 2.1.0 Build 151)  -->
  <defs>
    <style>
      .st0 {
        fill: #f9a2f9;
        stroke-width: 10px;
      }

      .st0, .st1 {
        stroke: #000;
        stroke-miterlimit: 10;
      }

      .st1 {
        fill: none;
      }
    </style>
  </defs>
  <circle class="st0" cx="772.21" cy="1025.62" r="617.09"/>
  <g>
    <path d="M557.49,936.95c-.55-2.16-1.3-1.98-2.75-1.36-20.44,8.81-165.67,70.59-186.89,79.87-1.77,1.07-1.75,4.19-1.88,6.57-.07,3.19-.15,6.61.35,9.76.5,2.86,1.78,2.77,4.23,3.94.78.33,1.5.66,2.33,1.01,25.92,11.24,55.29,24.02,84.5,36.69,29.76,12.99,74.83,32.45,97.5,42.33.57.24,1.16.47,1.68.23.62-.46.82-1.3,1.01-2.1.65-3.12,1.28-9.85,1.25-13.51,0-1.37-.28-3.19-1.2-3.78-20.34-9.57-152.84-64.67-164.7-71,46.83-20.65,109.79-46.65,156.12-66.59,2.07-.88,3.95-1.68,5.95-2.53,2.37-1.04,3.57-1.2,3.79-4.15.17-4.83-.45-10.68-1.28-15.26l-.03-.1Z"/>
    <path d="M556.05,1116.62c-.52,0-.99-.2-1.37-.36-9.89-4.31-24.04-10.44-39.32-17.07-19.41-8.41-41.41-17.94-58.18-25.27-13.9-6.03-27.84-12.08-41.42-17.99-14.96-6.5-29.5-12.82-43.08-18.71-.39-.17-.76-.33-1.12-.49-.4-.18-.79-.35-1.2-.52-.48-.23-.89-.4-1.26-.55-1.7-.71-2.83-1.18-3.29-3.79-.51-3.22-.43-6.75-.36-9.87l.03-.68c.11-2.33.25-5.22,2.11-6.35,13.08-5.72,73.25-31.38,121.6-52,30.82-13.14,57.44-24.5,65.35-27.9.88-.37,1.61-.63,2.28-.3.55.28.92.9,1.21,2.03l.03.11c.97,5.31,1.45,11.07,1.3,15.42-.22,2.98-1.48,3.52-3.39,4.32-.23.1-.46.2-.72.31l-5.96,2.53c-18.41,7.92-39.12,16.67-61.05,25.93-32.45,13.7-65.99,27.86-94,40.19,8.96,4.41,48.62,21.24,87.03,37.53,34.59,14.67,67.26,28.53,76.62,32.94,1.41.9,1.51,3.5,1.51,4.28.03,3.66-.59,10.41-1.26,13.63-.2.88-.43,1.86-1.23,2.44-.29.14-.57.2-.84.2ZM556.13,935.73c-.29,0-.72.17-1.18.36-7.91,3.41-34.53,14.76-65.35,27.9-48.35,20.62-108.52,46.28-121.53,51.97-1.3.79-1.42,3.36-1.52,5.43l-.03.67c-.07,3.05-.15,6.53.35,9.64.35,2.01,1.02,2.29,2.63,2.96.39.16.82.34,1.29.57.39.17.79.34,1.19.52.36.16.73.32,1.12.49,13.59,5.89,28.12,12.21,43.09,18.71,13.58,5.9,27.52,11.96,41.42,17.99,16.78,7.32,38.78,16.86,58.18,25.27,15.28,6.62,29.43,12.76,39.32,17.06.5.21.94.37,1.23.23.38-.29.55-1.02.72-1.73.64-3.09,1.27-9.85,1.23-13.38,0-1.62-.37-2.95-.94-3.32-9.28-4.36-41.94-18.22-76.52-32.89-40.17-17.04-81.71-34.66-88.14-38.09l-1-.53,1.04-.46c28.23-12.45,62.21-26.79,95.08-40.67,21.93-9.26,42.64-18,61.05-25.92l5.95-2.53c.25-.11.5-.21.73-.31,1.86-.79,2.56-1.08,2.73-3.37.15-4.26-.33-9.92-1.27-15.12l.51-.2-.53.14c-.24-.95-.48-1.24-.64-1.32-.05-.03-.12-.04-.19-.04Z"/>
  </g>
  <g>
    <path d="M725.71,927.15c1.78.65,3.86,3.68,6.63,3.61,4.45-.24,7.5-4.59,9.6-8.15,8.26-14.55,7.19-40.51-14.43-40.56-18.28.28-33.16,13.55-45.35,26.05-32.24,34.86-44.94,83.29-47.1,129.55-.69,11.8-.93,24.17.65,35.9,4.54,30.22,14.24,63.47,37.83,84.29,15.85,14.06,35.18,14.42,51.44-1.25,13.37-12.68,24.95-29.59,25.68-48.49.36-4.68-1.91-11.03.05-14.84,2.26-3.22,6.63-.4,8.47,2.03,3.59,4.62,4.15,10.88,3.87,16.6-.67,10.58-4.49,20.67-9.15,29.96-10.45,21.04-28.14,41.49-52.73,42.86-42.06,1.22-64.09-44.3-73.86-79.33-13.72-51.27-7.38-106.08,11.98-155.11,4.39-11.21,9.56-22.35,16.24-32.34,13.33-19.15,33.81-43.49,57.23-49.58,11.54-2.95,25.31-2.98,34.4,4.39,18.1,15.24,13.26,53.75-4.85,67.31-7.34,5.71-19.36,3.78-20.23-6.69-.1-2.55.75-6.93,3.57-6.24l.07.02Z"/>
    <path d="M699.54,1185.11c-18.28,0-34.31-8.82-47.69-26.24-12.97-16.89-20.69-38.36-24.88-53.39-6.64-24.83-8.81-51.25-6.43-78.52,2.24-25.7,8.44-51.55,18.42-76.82,5.21-13.29,10.38-23.59,16.28-32.41,19.64-28.2,38.96-44.93,57.44-49.73,6.68-1.71,23.43-4.69,34.73,4.46,7.69,6.48,11.89,17.76,11.51,30.97-.44,15.31-6.87,29.8-16.37,36.91-4.22,3.28-10.07,4.16-14.57,2.18-3.67-1.61-5.9-4.86-6.25-9.14-.08-2.18.46-5.02,1.86-6.16.62-.5,1.34-.66,2.16-.46l.11.04c.72.26,1.45.85,2.22,1.48,1.25,1.01,2.68,2.14,4.28,2.11,4.21-.23,7.18-4.38,9.3-7.97,6.39-11.27,5.58-24.69,1.57-31.6-3.18-5.48-8.61-8.39-15.68-8.4-17.65.27-32.1,12.63-45.08,25.94-35.64,38.53-45.23,91.59-47,129.31-.59,10.08-1.05,23.26.65,35.83,5.92,39.39,18.25,66.89,37.71,84.06,16.19,14.36,35.23,13.9,50.95-1.23,11.23-10.64,24.77-27.65,25.57-48.24.13-1.77-.11-3.82-.36-5.8-.4-3.31-.82-6.74.44-9.19.76-1.08,1.73-1.62,2.93-1.65,2.23-.04,4.77,1.79,6.17,3.62,3.02,3.89,4.31,9.4,3.94,16.84-.58,9.22-3.5,18.79-9.19,30.11-7.65,15.4-24.72,41.48-53.03,43.06-.56.02-1.11.02-1.67.02ZM726.95,866.87c-5.82,0-11.03,1.06-14.1,1.84-18.3,4.75-37.49,21.39-57.02,49.43-5.86,8.77-11.01,19.03-16.2,32.27-9.95,25.21-16.13,50.98-18.37,76.61-2.37,27.19-.22,53.52,6.4,78.26,4.17,14.97,11.86,36.34,24.76,53.13,13.63,17.75,30.02,26.47,48.74,25.93,27.94-1.56,44.83-27.4,52.41-42.66,5.65-11.23,8.54-20.71,9.12-29.82.36-7.26-.88-12.61-3.79-16.35-1.25-1.65-3.61-3.4-5.57-3.34-.95.02-1.73.45-2.32,1.29-1.13,2.21-.73,5.52-.34,8.72.24,2.02.5,4.11.36,5.93-.81,20.82-14.47,37.99-25.79,48.73-16.02,15.43-35.44,15.89-51.94,1.25-19.59-17.29-32-44.94-37.95-84.51-1.7-12.64-1.25-25.86-.66-35.97,1.77-37.84,11.4-91.08,47.2-129.78,13.1-13.43,27.69-25.89,45.61-26.17,7.36.02,13,3.05,16.32,8.77,4.12,7.09,4.97,20.83-1.57,32.34-2.21,3.75-5.33,8.09-9.9,8.33-1.89.03-3.42-1.18-4.77-2.27-.72-.59-1.41-1.14-2.01-1.36l-.07-.03c-.54-.13-1.04-.03-1.48.33-1.15.94-1.67,3.5-1.59,5.55.33,3.98,2.4,7.01,5.81,8.51,4.25,1.87,9.81,1.02,13.83-2.1,9.34-6.99,15.65-21.25,16.08-36.35.37-12.98-3.73-24.06-11.24-30.38-5.89-4.77-13.33-6.15-19.98-6.15Z"/>
  </g>
  <g>
    <path d="M865.69,971.03c-.16-.01-.14-.22.05-.62,1.18-2.17,2.85-4.18,4.75-6.74,5.65-7.56,12.34-15.32,16.14-24.08,6.32-15.49,5.77-40.87-9.92-50.58-8.43-4.59-18.66-2.14-26.96,1.79-16.37,7.71-28.27,23.1-31.55,40.56-4.72,27.76,11.13,54.68,28.26,75.67,10.55,13.36,22.85,28.94,32.68,41.39,7.25,9.14,14.9,18.17,18.74,29.34,16.13,42.89-20.46,97.79-65.86,100.54-29.28,2.64-52.74-26.09-51.57-54.1.26-7.55,1.87-15.36,6.14-21.69,2.3-3.28,5.47-5.83,9.41-6.24,3.42-.46,7.73,1.54,8.74,4.13,1.79,5.26-7.35,8.54-8.12,15.77-1.66,12.22,2.38,28.09,13.45,35.2,8,5.18,18.32,7.15,27.71,5.49,14.87-3.31,27.53-14.73,36.28-26.98,13.72-19.92,14.09-42.75-.76-61.78-6.35-8.6-13.62-17-20.22-25.56-11.6-14.72-24.01-28.22-32.78-44.31-12.29-22.65-22.98-47.85-15.92-73.49,2.68-10.18,7.37-19.86,14.13-27.91,11.44-13.51,33.14-26.43,50.98-23.68,8.01,1.08,15.05,6.23,19.49,12.98,11.11,16.42,10.51,38.62,1.38,56.03-3.23,6.24-7.43,11.77-12.16,17-3.59,3.72-8.45,9.35-12.5,11.87h-.02Z"/>
    <path d="M828.3,1178.84c-11.22,0-22.11-4.54-31-13.02-11.42-10.88-17.85-26.45-17.21-41.64.31-8.87,2.39-16.24,6.2-21.88,2.67-3.81,6.02-6.02,9.67-6.4,3.62-.48,8.06,1.63,9.12,4.36,1,2.93-1.13,5.27-3.37,7.75-2.05,2.25-4.36,4.81-4.72,8.19-1.63,12.04,2.41,27.87,13.29,34.86,7.81,5.06,18.07,7.09,27.45,5.44,17.46-3.89,30.08-18.48,36.04-26.84,14.04-20.38,13.76-42.74-.75-61.34-3.67-4.98-7.72-9.97-11.63-14.79-2.85-3.52-5.8-7.16-8.59-10.77-2.77-3.52-5.64-7.02-8.4-10.41-9.11-11.15-17.72-21.68-24.41-33.95-5.2-9.59-11.64-22.31-15.25-35.7-3.72-13.81-3.95-26.26-.7-38.06,2.79-10.61,7.71-20.31,14.21-28.05,11.52-13.6,33.41-26.57,51.32-23.81,7.62,1.03,15,5.94,19.74,13.14,10.6,15.66,11.15,37.8,1.4,56.4-2.95,5.69-6.83,11.12-12.21,17.08-.73.75-1.5,1.58-2.3,2.44-3.28,3.5-7,7.46-10.27,9.5l-.09.06h-.15c-.16-.02-.3-.1-.38-.24-.15-.26-.03-.59.12-.91.93-1.71,2.13-3.29,3.51-5.11.41-.54.84-1.1,1.27-1.69,1.1-1.47,2.24-2.95,3.39-4.44,4.75-6.17,9.66-12.55,12.71-19.57,6.02-14.75,5.97-40.38-9.78-50.12-8.76-4.77-19.31-1.65-26.61,1.81-16.09,7.58-28.1,23.01-31.34,40.29-3.87,22.74,5.35,47.39,28.19,75.37l34.43,43.58c6.64,8.32,13.5,16.92,17.05,27.26,7.51,19.97,3.95,44.31-9.54,65.1-13.74,21.18-34.91,34.61-56.64,35.93-1.25.11-2.5.17-3.74.17ZM797.02,1096.57c-.33,0-.65.02-.97.06-4.35.45-7.38,3.56-9.15,6.08-3.73,5.52-5.77,12.76-6.07,21.49-.63,14.98,5.72,30.34,16.99,41.08,9.72,9.27,21.86,13.76,34.18,12.65,21.51-1.3,42.47-14.61,56.08-35.59,13.36-20.6,16.9-44.69,9.46-64.45-3.51-10.23-10.34-18.78-16.93-27.05l-1.75-2.19-32.68-41.39c-22.97-28.15-32.24-53-28.34-75.96,3.29-17.51,15.46-33.16,31.75-40.83,7.46-3.53,18.24-6.71,27.29-1.78,16.11,9.97,16.21,36.04,10.09,51.04-3.09,7.1-8.03,13.52-12.81,19.73-1.15,1.49-2.28,2.97-3.38,4.43-.44.59-.87,1.15-1.28,1.7-1.27,1.67-2.37,3.12-3.24,4.64,3.01-2.1,6.38-5.69,9.37-8.88.81-.86,1.58-1.69,2.3-2.43,5.33-5.9,9.18-11.28,12.1-16.92,9.63-18.37,9.09-40.21-1.36-55.65-4.63-7.03-11.82-11.83-19.23-12.82-17.64-2.72-39.27,10.1-50.65,23.55-6.43,7.66-11.29,17.26-14.06,27.76-7.07,25.69,4.06,51.43,15.89,73.22,6.65,12.2,15.24,22.71,24.33,33.83,2.77,3.39,5.64,6.9,8.42,10.42,2.78,3.6,5.73,7.24,8.58,10.76,3.92,4.83,7.97,9.83,11.64,14.81,7.25,9.29,11.12,19.94,11.17,30.77.05,10.61-3.55,21.48-10.4,31.43-6.03,8.45-18.78,23.19-36.5,27.13-9.57,1.69-20.03-.38-27.99-5.54-11.14-7.15-15.28-23.3-13.62-35.56.38-3.61,2.79-6.26,4.91-8.59,2.19-2.41,4.08-4.5,3.23-7-.84-2.16-4.3-3.95-7.37-3.95Z"/>
  </g>
  <g>
    <path d="M969.52,1152.07c-2.2-.29-2.7-.95-1.76-2.62,26.47-52.11,70.1-137.95,98.98-194.79,13.28-26.12,23.48-46.22,26.84-52.81.87-2.11,3.12-2.57,5.26-2.74,4.64-.41,12.72-.41,15.37.31.98.27,1.53.83,1.02,1.9-10.81,21.88-109.84,221.47-123.43,248.66-1.12,2.11-4.27,2.12-6.51,2.29-4.82.23-12.32.24-15.64-.17l-.12-.02Z"/>
    <path d="M978.04,1153.06c-3.34,0-6.57-.1-8.48-.34l-.13-.02c-1.05-.14-2.18-.39-2.61-1.24-.4-.79.02-1.71.37-2.33,19.44-38.27,48.16-94.8,73.49-144.63l39.44-77.62c6.26-12.32,10.83-21.32,12.88-25.33.98-2.39,3.48-2.91,5.78-3.09,4.3-.38,12.72-.45,15.59.33.79.22,1.31.59,1.55,1.12.22.49.18,1.06-.11,1.68-9.85,19.93-109.53,220.85-123.44,248.67-1.2,2.25-4.1,2.44-6.43,2.6l-.61.04c-2.15.1-4.75.16-7.29.16ZM1105.95,899.47c-2.48,0-5.05.09-7.06.27-2.02.16-3.98.56-4.72,2.35-2.07,4.05-6.64,13.06-12.9,25.38l-39.44,77.62c-25.32,49.84-54.05,106.36-73.5,144.66-.44.8-.39,1.07-.35,1.15.05.11.32.37,1.62.54l.13.02c3.19.39,10.6.4,15.53.17l.6-.04c2.01-.13,4.52-.3,5.37-1.9,13.89-27.8,113.58-228.72,123.42-248.64.07-.14.18-.42.1-.58-.07-.15-.33-.31-.72-.41-1.42-.38-4.67-.56-8.08-.56Z"/>
  </g>
  <g>
    <path d="M1128.54,1096.52c.31-1.97,1.06-3.08,2.75-3.79,21.07-8.73,56.27-22.98,82.94-33.95,27.07-11.08,54.98-22.47,79.25-32.43,2.1-.89,1.8-1.15.15-1.89-15.39-6.58-142.44-58.44-163.44-67.72-1.21-.74-1.72-3.1-1.85-4.87-.36-4.3-.34-11.53.12-14.69.15-1.16.61-2.59,2.03-2.05,51.04,21.74,135.3,58.07,187.69,80.52,1.25.54,2.21,1.17,2.64,2.6.78,2.37.87,7.39.63,11.29-.27,2.72-.26,5-2.53,6.22-46.15,19.76-170.22,72.65-188.14,80.24-1.84.83-2.26-.99-2.4-2.44-.35-4.14-.52-12.14.14-16.92l.02-.14Z"/>
    <path d="M1129.95,1116.85c-.32,0-.62-.08-.88-.23-.97-.56-1.21-1.97-1.3-2.98-.35-4.12-.54-12.14.14-17.07l.03-.15c.36-2.25,1.27-3.48,3.13-4.26,11.76-4.87,27.67-11.36,44.52-18.24,13.17-5.37,26.63-10.86,38.43-15.71l24.8-10.14c18.91-7.73,37.56-15.36,54.45-22.29.41-.17.68-.3.85-.4-.25-.13-.57-.28-.72-.35-5.9-2.52-28.57-11.85-54.83-22.65-42.62-17.53-95.67-39.35-108.61-45.07-1.74-1.06-2.13-4.12-2.22-5.4-.34-4.13-.36-11.51.12-14.82.17-1.27.57-2.08,1.22-2.47.33-.2.88-.37,1.66-.07,32.69,13.92,77.98,33.39,121.77,52.21,24.09,10.35,47.08,20.23,65.94,28.32,1.25.54,2.48,1.28,2.99,3,.85,2.57.88,7.81.66,11.51l-.07.74c-.22,2.43-.43,4.73-2.79,5.99-46.29,19.83-170.51,72.77-188.19,80.26-.38.17-.75.26-1.08.26ZM1129.92,935.65c-.12,0-.19.04-.22.06-.13.08-.46.39-.62,1.57-.47,3.24-.45,10.48-.12,14.55.12,1.79.65,3.83,1.55,4.38,12.86,5.67,65.89,27.49,108.51,45.02,26.26,10.8,48.94,20.13,54.86,22.66.93.42,1.72.78,1.72,1.5,0,.71-.81,1.11-1.86,1.55-16.9,6.93-35.55,14.56-54.46,22.29l-24.8,10.14c-11.79,4.85-25.26,10.34-38.43,15.71-16.85,6.87-32.76,13.36-44.51,18.23-1.44.6-2.09,1.5-2.37,3.3l-.02.14c-.65,4.76-.46,12.82-.13,16.77.13,1.41.45,1.87.69,2.01.18.11.47.08.84-.09,17.69-7.5,141.92-60.44,188.15-80.24,1.72-.92,1.88-2.62,2.09-4.98l.07-.72c.23-3.85.14-8.78-.6-11.04-.35-1.19-1.11-1.71-2.29-2.23-18.86-8.08-41.86-17.97-65.94-28.32-43.8-18.82-89.09-38.29-121.75-52.2-.14-.05-.25-.07-.33-.07Z"/>
  </g>
  <path class="st1" d="M1293.5,1058.11"/>
</svg>