<?xml version="1.0" encoding="UTF-8"?>
<svg id="Calque_2" xmlns="http://www.w3.org/2000/svg" version="1.1" viewBox="0 0 177.5 148.5">
  <!-- Generator: Adobe Illustrator 29.5.1, SVG Export Plug-In . SVG Version: 2.1.0 Build 141)  -->
  <defs>
    <style>
      .st0 {
        fill: #e5bdda;
      }
    </style>
  </defs>
  <path class="st0" d="M56.1,67.5l-8.4-3.1c-5.3-2-18.7-10.2-12.1-16.7,6.4-6.4,21.6,2.3,28.3,5.2-3.9-5.2-8.4-9.7-10.7-15.9s-2.8-10.3,2.2-11.1c8-1.3,15.2,9.1,19.3,14.5-1.2-5.3-3.5-20.5,2.4-23.5,8.3-4.2,13.3,10.1,13.9,15.9l1.2,8.6c.2-5.7,5.6-22.6,11.7-24s6.6,1.6,7.6,5.4c2,7-.9,13.9-2.8,20.6l8-8.5c6.8-6.7,20.8-9.5,15.6,4.7s-6.7,9.7-10.7,14.4c6.2-2.6,16.2-7.5,22.8-4.4,7.7,3.6-.6,13.4-5.8,15.2l-13.4,5.8h9.5c1.2,0,6.6,1.7,8,2.3,8.1,3.2,10.5,10.3,1,13.5s-12.3,1-18.9.4c-.6,0-1.8-.6-1.6.3,5.9,2,19,11.5,18,18.3s-14.4,3.1-18.3.4l-9.4-6.1c4.4,5.4,11.2,18,6.9,24.6-6,9.3-18.6-8.8-20.7-13.9l-3.2-6.7c.4,6.9,1.4,14.3-.8,21.1s-10.3,11.1-14,1.6c-3.2-8-1.5-17.9-.1-26.2l-5.2,10.2c-3,5-15.1,21.5-21.5,13.1s5.3-19.9,9.8-25.3l-10.5,6.1c-6.4,3.8-23.8,6.6-17.9-5.9,2.6-5.6,13.4-11.7,19.1-13.7.1-.8-1.2-.5-1.8-.5-6.9.2-13.2,1.3-19.9-1.6-8.1-3.5-6.7-10,.9-12.9s6.4-2,7.7-2h14.2ZM90,59c1-11.6,2.2-25.1-3-35.9-2.7-5.6-9.5-9.3-12.2-1.6s-.6,13.1.7,18.4c.6,2.3,6.9,20.1,7.8,20.8s2.9-.9,3-1c.7-1-4.4-20.2-4.5-23.4s0-1.4.9-1.6l4.2,24.3c.4,1.3,1.9.2,3,.3ZM108.9,19.5c-1.4-1.5-4.4-1.5-6.2-.6-8.2,4.1-12.1,32.1-11.6,40.6,1.1,0,2.5.3,3-.8l8.3-25.2c.9-.1.5,1.1.4,1.6-2.2,8.3-5.6,16.8-8.6,24.9.8-.1,2.6,1.3,3.1,1s.3-1.1.6-1.7c3.5-5.4,7.3-10.6,9.8-16.6s6-18.2,1.3-23.3ZM82.8,61c-4.4-10.2-8.5-22.5-17.3-30.1s-15.4-7.1-12.2,4.4,15.5,21,23.8,28.5c.8.3,4.2-3.3,5.7-2.8ZM102.4,66c9.4-5.9,27.8-17.5,29.7-29s-4.7-8-10.5-4.7c-7.3,4.1-13.7,13.1-18.2,19.9s-5.1,7.5-5.4,8.8,1.9,2.3,2.9,1.8c3.1-1.5,8.5-10.4,12.4-12.3.2.9-.5,1.2-1,1.8-1.4,1.6-11.3,10.7-11.3,11.5s1.8,1.4,1.5,2.3ZM75,67c.2,0,1.9-2.7,1.4-3-8.1-6.9-17.9-14.3-28.6-16.8s-14.4-1.6-12.8,6.4c1.5,7.1,21.3,13.3,27.8,15.1s9.4,2.4,9.9,2.4,1.6-3,1.3-3.5c-7.5-3.9-15.4-7.2-23-11s-1.1-.8.1-.6,3.9,1.5,5.1,2.1c2.5,1.1,17.9,9.4,18.8,8.9ZM106,73c6.3-1.3,12.8-2,19-3.8,5.6-1.6,17.9-6.4,20.5-11.6s-1.6-8.4-7.4-8.2c-12,.5-24.6,11.2-34.7,16.6l1,3,29.8-11.3c-9.5,4.5-19.4,8.3-29.3,11.8l1,3.5ZM72.5,71.5c-3.7-.3-7.5-1.8-11.2-2.4-7.7-1.2-18.3-1.6-25.8.7-10.8,3.4-8.2,10.8,1.9,12.9,11.9,2.5,23.5-.9,35-3.3l-.6-3.9c-8.5.7-17,.6-25.4.9-1.2,0-2.3.5-3.6.5s-2,.3-1.8-.5c10-1.1,20.1-.9,30.1-1.5,1.8-.2,1.3-2.2,1.3-3.5ZM105.5,80.5c5.4,1.4,10.4,3.8,15.8,4.9,6,1.2,23.5,3.1,26.8-3.2s-8.9-10-13.6-10.7c-9.8-1.4-19,.3-28.5,2.5l.5,2.5,28.8,3c-2.8-.1-5.7.2-8.5,0s-20.1-3.2-20.9-2.5.2,2.8-.5,3.5ZM73,80c-.6-.5-13.8,3.5-15.6,4.1-6.5,2.3-21.5,10.3-22,17.7s1.9,4.3,4.4,4.7c8.8,1.2,22.5-7.9,29.1-13.2,1-.8,7.3-6.3,7.5-6.8s-1.5-2.5-1.6-2.5c-2-.3-15.3,8.3-18.2,9.8s-3.5,2.1-5.2,2c7.7-3.7,14.6-9.5,22.7-12.3-.3-.6-.9-3.4-1-3.5ZM125,97.6c-3.1-.8-19.6-13-20.9-13s-2.6,2-2.1,2.9,8.6,8.6,10.1,9.8c5.3,4.6,16.5,12.3,23.8,11.2,6.2-.9,4.2-6.7,1.4-10.2-7.5-9.5-20.8-13.3-31.9-17.1-.5.9-1.4,2.2-.5,3,6.5,4.7,14.1,8,20.1,13.3ZM64.3,113.2c-.2-.8.4-1.3.8-2,4.4-7.5,10.2-14.4,14.5-21.9,0-.2-2.3-2.8-3-2-3.5,3.6-7.7,6.5-11.1,10.3s-15.6,19.6-10.3,25.6c5.9,6.7,16.7-8.1,19.3-12.3s9.9-18.8,9-19.8-2.9-1.4-3.1-1.4c-.7,0-6.4,9.6-7.4,11.2-2.8,4.2-5.6,8.4-8.8,12.3ZM93.7,91.6c-.3.4,1.6,6.4,1.9,7.4,2.3,7.1,11.2,26.5,20,26.7,3,0,4.5-2.2,4.8-4.8,1.1-8.3-6.1-19.7-11.5-25.8s-7.2-7.5-7.7-7.5-4.1,2.8-2.4,3.8c3.5,5.4,6.9,10.9,9.8,16.5.2.5,1.1,1.3.3,1.7l-11.1-19c-.3-.2-3.9.8-4.1,1ZM87.9,92.2c-.2-.4-2.9-.8-3.5-.5-1.2.7-3.5,15-3.7,17.2-.4,5.5-.5,14.4,2.4,19.2s5.9,4.9,9,1.3c5.2-6,3.9-23,2.4-30.5s-1.4-6.1-1.6-6.4c-.7-.9-2.8-.4-3.9-.5.4,2.1-.5,4.3-.5,6.3-.1,5.5.3,11,0,16.6l-1,4.7c-.5-2.8.4-5.7.5-8.3s.4-18.4,0-19.3Z"/>
</svg>